<svg xmlns="http://www.w3.org/2000/svg" width="800" height="183" viewBox="0 0 800 183">
    <style>
        .terminal-text { font-family: Courier New, monospace; font-size: 14px; fill: #c9d1d9; }
        .terminal-text-bold { font-family: Courier New, monospace; font-size: 14px; font-weight: 700; fill: #c9d1d9; }
        .terminal-bg { fill: #0d1117; stroke: #30363d; stroke-width: 1px; }
        .terminal-header { fill: #161b22; }
        
        /* Color classes */
        .color-primary { fill: #58a6ff; }
        .color-success { fill: #3fb950; }
        .color-error { fill: #f85149; }
        .color-warning { fill: #d29922; }
        .color-secondary { fill: #8b949e; }
        .color-purple { fill: #bc8cff; }
        .color-blue { fill: #58a6ff; }
    </style>
    
    <!-- Window Background with Border -->
    <rect width="799" height="182" x="0.5" y="0.5" class="terminal-bg" rx="8"/>
    
    <!-- Header -->
    <path class="terminal-header" d="M 0.5 8 Q 0.5 0.5 8 0.5 L 791.5 0.5 Q 799.5 0.5 799.5 8 L 799.5 32 L 0.5 32 Z" />
    <line x1="0.5" y1="32" x2="799.5" y2="32" stroke="#30363d" stroke-width="1" />
    
    <!-- Window Controls -->
    <circle cx="20" cy="16" r="6" fill="#f85149" />
    <circle cx="40" cy="16" r="6" fill="#d29922" />
    <circle cx="60" cy="16" r="6" fill="#3fb950" />
    
    <!-- Inner Content -->
    <g transform="translate(0, 32)">
        <style>
            @keyframes fade { from {opacity:0} to {opacity:1} }
            .title { font-family: 'JetBrains Mono', monospace; font-size: 14px; font-weight: 700; fill: #c9d1d9; animation: fade 0.3s ease-out backwards; }
            .grid { animation: fade 0.3s ease-out backwards; }
        </style>
        <text x="20" y="34" class="title">om@github:~$ github activity</text>
        <text x="20" y="167" style="font-family: 'JetBrains Mono', monospace; font-size: 12px; fill:#8b949e;">Loading GitHub contribution data...</text>
        <g class="grid"><rect x="20" y="64" width="10" height="10" rx="2" fill="#0e4429" /><rect x="20" y="77" width="10" height="10" rx="2" fill="#39d353" /><rect x="20" y="90" width="10" height="10" rx="2" fill="#26a641" /><rect x="20" y="103" width="10" height="10" rx="2" fill="#0e4429" /><rect x="20" y="116" width="10" height="10" rx="2" fill="#3fb950" /><rect x="20" y="129" width="10" height="10" rx="2" fill="#26a641" /><rect x="20" y="142" width="10" height="10" rx="2" fill="#006d32" /><rect x="33" y="64" width="10" height="10" rx="2" fill="#0e4429" /><rect x="33" y="77" width="10" height="10" rx="2" fill="#3fb950" /><rect x="33" y="90" width="10" height="10" rx="2" fill="#26a641" /><rect x="33" y="103" width="10" height="10" rx="2" fill="#006d32" /><rect x="33" y="116" width="10" height="10" rx="2" fill="#3fb950" /><rect x="33" y="129" width="10" height="10" rx="2" fill="#39d353" /><rect x="33" y="142" width="10" height="10" rx="2" fill="#006d32" /><rect x="46" y="64" width="10" height="10" rx="2" fill="#006d32" /><rect x="46" y="77" width="10" height="10" rx="2" fill="#3fb950" /><rect x="46" y="90" width="10" height="10" rx="2" fill="#39d353" /><rect x="46" y="103" width="10" height="10" rx="2" fill="#006d32" /><rect x="46" y="116" width="10" height="10" rx="2" fill="#0e4429" /><rect x="46" y="129" width="10" height="10" rx="2" fill="#39d353" /><rect x="46" y="142" width="10" height="10" rx="2" fill="#26a641" /><rect x="59" y="64" width="10" height="10" rx="2" fill="#006d32" /><rect x="59" y="77" width="10" height="10" rx="2" fill="#0e4429" /><rect x="59" y="90" width="10" height="10" rx="2" fill="#39d353" /><rect x="59" y="103" width="10" height="10" rx="2" fill="#26a641" /><rect x="59" y="116" width="10" height="10" rx="2" fill="#0e4429" /><rect x="59" y="129" width="10" height="10" rx="2" fill="#3fb950" /><rect x="59" y="142" width="10" height="10" rx="2" fill="#26a641" /><rect x="72" y="64" width="10" height="10" rx="2" fill="#26a641" /><rect x="72" y="77" width="10" height="10" rx="2" fill="#0e4429" /><rect x="72" y="90" width="10" height="10" rx="2" fill="#3fb950" /><rect x="72" y="103" width="10" height="10" rx="2" fill="#26a641" /><rect x="72" y="116" width="10" height="10" rx="2" fill="#006d32" /><rect x="72" y="129" width="10" height="10" rx="2" fill="#3fb950" /><rect x="72" y="142" width="10" height="10" rx="2" fill="#39d353" /><rect x="85" y="64" width="10" height="10" rx="2" fill="#26a641" /><rect x="85" y="77" width="10" height="10" rx="2" fill="#006d32" /><rect x="85" y="90" width="10" height="10" rx="2" fill="#3fb950" /><rect x="85" y="103" width="10" height="10" rx="2" fill="#39d353" /><rect x="85" y="116" width="10" height="10" rx="2" fill="#006d32" /><rect x="85" y="129" width="10" height="10" rx="2" fill="#0e4429" /><rect x="85" y="142" width="10" height="10" rx="2" fill="#39d353" /><rect x="98" y="64" width="10" height="10" rx="2" fill="#39d353" /><rect x="98" y="77" width="10" height="10" rx="2" fill="#006d32" /><rect x="98" y="90" width="10" height="10" rx="2" fill="#0e4429" /><rect x="98" y="103" width="10" height="10" rx="2" fill="#39d353" /><rect x="98" y="116" width="10" height="10" rx="2" fill="#26a641" /><rect x="98" y="129" width="10" height="10" rx="2" fill="#0e4429" /><rect x="98" y="142" width="10" height="10" rx="2" fill="#3fb950" /><rect x="111" y="64" width="10" height="10" rx="2" fill="#39d353" /><rect x="111" y="77" width="10" height="10" rx="2" fill="#26a641" /><rect x="111" y="90" width="10" height="10" rx="2" fill="#0e4429" /><rect x="111" y="103" width="10" height="10" rx="2" fill="#3fb950" /><rect x="111" y="116" width="10" height="10" rx="2" fill="#26a641" /><rect x="111" y="129" width="10" height="10" rx="2" fill="#006d32" /><rect x="111" y="142" width="10" height="10" rx="2" fill="#3fb950" /><rect x="124" y="64" width="10" height="10" rx="2" fill="#3fb950" /><rect x="124" y="77" width="10" height="10" rx="2" fill="#26a641" /><rect x="124" y="90" width="10" height="10" rx="2" fill="#006d32" /><rect x="124" y="103" width="10" height="10" rx="2" fill="#3fb950" /><rect x="124" y="116" width="10" height="10" rx="2" fill="#39d353" /><rect x="124" y="129" width="10" height="10" rx="2" fill="#006d32" /><rect x="124" y="142" width="10" height="10" rx="2" fill="#0e4429" /><rect x="137" y="64" width="10" height="10" rx="2" fill="#3fb950" /><rect x="137" y="77" width="10" height="10" rx="2" fill="#39d353" /><rect x="137" y="90" width="10" height="10" rx="2" fill="#006d32" /><rect x="137" y="103" width="10" height="10" rx="2" fill="#0e4429" /><rect x="137" y="116" width="10" height="10" rx="2" fill="#39d353" /><rect x="137" y="129" width="10" height="10" rx="2" fill="#26a641" /><rect x="137" y="142" width="10" height="10" rx="2" fill="#0e4429" /><rect x="150" y="64" width="10" height="10" rx="2" fill="#0e4429" /><rect x="150" y="77" width="10" height="10" rx="2" fill="#39d353" /><rect x="150" y="90" width="10" height="10" rx="2" fill="#26a641" /><rect x="150" y="103" width="10" height="10" rx="2" fill="#0e4429" /><rect x="150" y="116" width="10" height="10" rx="2" fill="#3fb950" /><rect x="150" y="129" width="10" height="10" rx="2" fill="#26a641" /><rect x="150" y="142" width="10" height="10" rx="2" fill="#006d32" /><rect x="163" y="64" width="10" height="10" rx="2" fill="#0e4429" /><rect x="163" y="77" width="10" height="10" rx="2" fill="#3fb950" /><rect x="163" y="90" width="10" height="10" rx="2" fill="#26a641" /><rect x="163" y="103" width="10" height="10" rx="2" fill="#006d32" /><rect x="163" y="116" width="10" height="10" rx="2" fill="#3fb950" /><rect x="163" y="129" width="10" height="10" rx="2" fill="#39d353" /><rect x="163" y="142" width="10" height="10" rx="2" fill="#006d32" /></g>
        
    </g>
</svg>